<?xml version="1.0" standalone="no"?>
<!DOCTYPE svg PUBLIC "-//W3C//DTD SVG 20010904//EN"
 "http://www.w3.org/TR/2001/REC-SVG-20010904/DTD/svg10.dtd">
<svg version="1.0" xmlns="http://www.w3.org/2000/svg"
 width="700.000000pt" height="700.000000pt" viewBox="0 0 700.000000 700.000000"
 preserveAspectRatio="xMidYMid meet">

<g transform="translate(0.000000,700.000000) scale(0.100000,-0.100000)"
fill="#303030" stroke="none">
<path d="M802 6198 l-792 -793 1032 -1032 1033 -1033 -426 -427 c-402 -405
-606 -627 -711 -774 -94 -131 -129 -223 -408 -1060 -149 -446 -269 -813 -267
-816 3 -2 371 118 818 268 872 290 936 315 1088 429 158 119 359 305 759 703
l412 412 1033 -1033 1032 -1032 793 792 792 793 -1032 1032 -1033 1033 760
762 c800 803 790 792 861 956 78 181 89 419 27 617 -39 127 -131 272 -234 371
-150 142 -319 221 -523 243 -211 24 -423 -29 -606 -152 -25 -16 -384 -368
-798 -781 l-752 -751 -1033 1033 -1032 1032 -793 -792z m3175 -2220 c1305
-1305 2373 -2377 2373 -2383 0 -13 -932 -945 -945 -945 -6 0 -98 88 -205 195
l-195 195 313 313 c171 171 312 316 312 322 0 5 -33 42 -72 82 l-73 73 -317
-317 -318 -318 -235 235 c-129 129 -235 239 -235 245 0 6 70 80 155 165 l155
155 -72 72 c-40 40 -77 73 -83 73 -6 0 -78 -67 -160 -150 -82 -82 -154 -150
-160 -150 -6 0 -116 106 -245 235 l-235 235 160 160 160 160 -78 77 -77 78
-160 -160 -160 -160 -235 235 c-129 129 -235 239 -235 245 0 5 141 151 312
322 l313 313 -78 77 -77 78 -313 -313 c-171 -171 -317 -312 -322 -312 -6 0
-116 106 -245 235 l-235 235 160 160 160 160 -78 77 -77 78 -160 -160 -160
-160 -235 235 c-129 129 -235 239 -235 245 0 6 68 78 150 160 83 82 150 154
150 160 0 6 -33 43 -73 83 l-72 72 -155 -155 c-85 -85 -159 -155 -165 -155 -6
0 -116 106 -245 235 l-235 235 318 318 317 317 -73 73 c-40 39 -77 72 -82 72
-6 0 -151 -141 -322 -312 l-313 -313 -195 195 c-107 107 -195 199 -195 205 0
13 932 945 945 945 5 0 1078 -1068 2382 -2372z m1858 2177 c84 -22 147 -60
209 -125 61 -64 90 -114 111 -197 30 -114 12 -242 -47 -340 -17 -28 -112 -132
-210 -230 l-178 -178 -317 318 -318 317 178 178 c98 98 202 193 230 210 98 59
226 77 342 47z m-745 -1070 l315 -315 -398 -398 -397 -397 -317 318 -318 317
395 395 c217 217 397 395 400 395 3 0 147 -142 320 -315z m-2380 -2380 l315
-315 -398 -398 -397 -397 -317 318 -318 317 395 395 c217 217 397 395 400 395
3 0 147 -142 320 -315z m-808 -1427 c-10 -10 -930 -316 -935 -311 -5 4 297
915 309 934 4 7 130 -113 320 -302 172 -172 310 -317 306 -321z"/>
</g>
</svg>
